<svg xmlns="http://www.w3.org/2000/svg" version="1.1" xmlns:xlink="http://www.w3.org/1999/xlink" width="16" height="16"><svg width="16" height="16" viewBox="0 0 16 16" fill="none" xmlns="http://www.w3.org/2000/svg">
<g clip-path="url(#clip0_1_68)">
<rect width="16" height="16" fill="white"></rect>
<rect width="16" height="16" fill="#D10002"></rect>
<path d="M2.99047 5.53125L2.66885 6.54153L1.60938 6.55288L2.4683 7.16586L2.15803 8.15344L2.99047 7.54803L3.83805 8.14209L3.51264 7.15451L4.36022 6.5264L3.31967 6.54153L2.99047 5.53125Z" fill="white"></path>
<path d="M6.32403 5.53127L6.0024 6.54155L4.94293 6.5529L5.80186 7.16588L5.49159 8.15346L6.32403 7.54805L7.16782 8.14211L6.8462 7.15453L7.69377 6.52641L6.64944 6.54155L6.32403 5.53127Z" fill="white"></path>
<path d="M9.66894 5.53127L9.34731 6.54155L8.28784 6.5529L9.14677 7.16588L8.8365 8.15346L9.66894 7.54805L10.5165 8.14211L10.1911 7.15453L11.0387 6.52641L10.0019 6.54155L9.66894 5.53127Z" fill="white"></path>
<path d="M7.98513 7.83182L7.66351 8.8421L6.60403 8.85345L7.46296 9.46643L7.15269 10.454L7.98513 9.8486L8.83271 10.4427L8.51108 9.45508L9.35488 8.83075L8.31432 8.8421L7.98513 7.83182Z" fill="white"></path>
<path d="M4.64779 7.83182L4.32616 8.8421L3.26669 8.85345L4.12562 9.46643L3.81535 10.454L4.64779 9.8486L5.49158 10.4427L5.16996 9.45508L6.01375 8.83075L4.97698 8.8421L4.64779 7.83182Z" fill="white"></path>
<path d="M11.3376 7.83182L11.016 8.8421L9.95651 8.85345L10.8154 9.46643L10.5052 10.454L11.3376 9.8486L12.1852 10.4427L11.8598 9.45508L12.7074 8.83075L11.6706 8.8421L11.3376 7.83182Z" fill="white"></path>
<path d="M13.0138 5.53127L12.6884 6.54155L11.6328 6.5529L12.4917 7.16588L12.1814 8.15346L13.0138 7.54805L13.8576 8.14211L13.536 7.15453L14.3798 6.52641L13.343 6.54155L13.0138 5.53127Z" fill="white"></path>
</g>
<defs>
<clipPath id="SvgjsClipPath1005">
<rect width="16" height="16" fill="white"></rect>
</clipPath>
</defs>
</svg><style>@media (prefers-color-scheme: light) { :root { filter: none; } }
@media (prefers-color-scheme: dark) { :root { filter: none; } }
</style></svg>